<svg width="1743" height="6108" viewBox="0 0 1743 6108" fill="none" xmlns="http://www.w3.org/2000/svg">
<rect x="230.82" y="73.1799" width="1467" height="6034" fill="url(#paint0_linear_670_2016)"/>
<g style="mix-blend-mode:color-dodge" opacity="0.3">
<path style="mix-blend-mode:color-dodge" d="M1140.67 737.546C1114.71 712.465 1073.84 692.132 1022.51 678.754C977.274 666.951 927.202 661.361 881.496 662.991C705.297 667.584 580.563 612.486 510.478 499.251C483.838 462.213 460.682 421.258 438.276 381.668C380.814 280.059 321.379 174.977 195.331 117.106C135.381 90.141 67.8433 77.4918 0 80.5222L0 81.3653C67.6592 78.3349 135.015 90.942 194.805 117.827C320.551 175.565 379.907 280.513 437.303 382.001C459.722 421.624 482.891 462.59 509.531 499.639C545.547 557.821 596.973 601.227 662.364 628.593C723.442 654.173 797.196 666.031 881.535 663.834C965.795 660.817 1082.56 682.759 1139.85 738.089C1170.09 767.374 1179.61 802.15 1167.95 841.451L1168.99 841.651C1180.8 802.072 1171.21 767.052 1140.67 737.546Z" fill="url(#paint1_linear_670_2016)"/>
<path style="mix-blend-mode:color-dodge" d="M1141.61 767.474C1123.77 742.094 1094.78 719.775 1062.05 706.087C991.292 676.813 911.095 677.634 833.527 678.432C765.914 679.131 696 679.852 632.634 660.617C563.509 639.796 500.721 594.438 446.008 525.796C416.711 490.222 390.649 450.476 365.442 412.051C301.682 314.812 235.765 214.29 108.376 163.185C74.1154 149.961 37.4936 141.621 0 138.504L0 139.48C37.3398 142.475 73.8156 150.747 107.902 163.951C234.976 214.977 300.814 315.333 364.496 412.428C389.716 450.887 415.778 490.643 445.113 526.24C499.946 595.015 562.917 640.495 632.253 661.416C695.803 680.706 765.835 679.985 833.541 679.286C910.976 678.499 991.029 677.667 1061.56 706.841C1122.99 732.443 1177.01 791.767 1156.09 851.28L1157.12 851.513C1166.62 824.479 1161.26 795.416 1141.61 767.474Z" fill="url(#paint2_linear_670_2016)"/>
<path style="mix-blend-mode:color-dodge" d="M1125.36 774.64C1105.51 748.76 1074.08 726.497 1039.3 713.541C963.165 685.498 878.879 690.047 797.354 694.439C727.124 698.233 654.514 702.204 587.348 685.221C513.147 666.608 443.891 621.893 381.524 552.319C351.399 519.329 323.773 482.279 297.053 446.461C226.298 351.562 153.122 253.447 21.3674 209.276C14.3366 206.991 7.21496 204.942 0 203.13L0 204.029C7.06506 205.811 14.0788 207.826 21.0387 210.074C152.452 254.124 225.535 352.117 296.199 446.893C322.931 482.734 350.571 519.806 380.722 552.818C443.233 622.547 512.661 667.362 587.085 686.031C654.449 703.014 727.164 699.087 797.472 695.293C878.84 690.856 962.981 686.419 1038.87 714.317C1105.41 739.054 1163.02 800.741 1144.23 861.141L1145.27 861.341C1153.93 833.453 1146.87 802.66 1125.36 774.64Z" fill="url(#paint3_linear_670_2016)"/>
<path style="mix-blend-mode:color-dodge" d="M1109.11 781.806C1087.23 755.416 1053.5 733.231 1016.56 721.029C935.039 694.262 846.729 702.559 761.338 710.59C688.466 717.446 613.108 724.545 542.141 709.847C462.852 693.43 387.152 649.358 317.106 578.864C286.087 547.649 258.132 513.805 231.084 481.07C206.85 451.752 181.801 421.425 154.635 393.083C123.471 354.835 77.7512 319.127 25.9039 292.56C17.3307 288.123 8.69556 284.019 0 280.247L0 281.179C60.4863 307.535 115.871 347.081 153.767 393.582C180.933 421.913 205.969 452.229 230.19 481.547C257.251 514.293 285.232 548.104 316.264 579.396C386.455 650.035 462.365 694.206 541.878 710.657C613.029 725.377 688.492 718.289 761.47 711.422C846.729 703.402 934.895 695.105 1016.17 721.794C1086.94 745.311 1149.74 807.541 1132.36 870.991L1133.41 871.18C1141.35 842.028 1132.75 810.292 1109.11 781.806Z" fill="url(#paint4_linear_670_2016)"/>
<path style="mix-blend-mode:color-dodge" d="M1174.12 753.198C1160.07 728.45 1136.43 706.442 1107.49 691.2C1031.7 658.809 959.326 651.266 889.333 643.978C765.152 631.044 657.907 619.874 574.935 472.762C544.916 421.879 519.709 368.124 495.383 316.154C492.849 310.733 490.312 305.325 487.769 299.926C469.19 247.79 435.067 196.763 389.085 152.392C342.576 107.522 286.14 71.6592 225.864 48.6862C150.585 19.967 73.5172 12.4572 0 26.2012L0 27.0775C73.3462 13.3114 150.269 20.799 225.404 49.4405C346.376 95.5419 448.94 193.935 486.757 300.137C489.299 305.558 491.841 310.977 494.383 316.398C518.736 368.39 543.93 422.157 573.962 473.073C612.003 540.505 657.355 583.834 716.631 609.436C769.675 632.32 827.702 638.366 889.135 644.766C959.037 652.043 1031.32 659.575 1106.9 691.877C1159.92 719.808 1203.48 778.267 1179.79 831.568L1180.78 831.856C1191.74 807.33 1189.42 780.109 1174.12 753.198Z" fill="url(#paint5_linear_670_2016)"/>
<path style="mix-blend-mode:color-dodge" d="M1050.54 586.607C997.945 567.461 943.494 547.671 904.126 513.039C833.488 449.145 829.622 362.844 825.875 279.393C824.796 255.189 823.679 230.163 820.852 206.636C816.131 134.322 788.492 63.395 741.812 0L740.563 0C787.361 63.384 815.066 134.344 819.787 206.691C822.614 230.219 823.731 255.233 824.81 279.415C828.557 363.032 832.436 449.489 903.337 513.605C942.784 548.381 997.366 568.204 1050.09 587.383C1103.2 606.696 1158.13 626.674 1197.73 661.926C1233.57 693.885 1258.12 748.261 1227.33 792.133L1228.27 792.555C1259.3 748.317 1234.6 693.53 1198.52 661.35C1158.77 625.964 1103.76 605.952 1050.54 586.607Z" fill="url(#paint6_linear_670_2016)"/>
<path style="mix-blend-mode:color-dodge" d="M1221.27 653.906C1186.27 617.6 1135.37 594.471 1086.14 572.108C1036.08 549.357 984.296 525.841 949.385 488.447C889.03 422.29 895.013 340.115 900.812 260.68C902.679 235.011 904.612 208.455 904.112 183.363C903.968 120.689 887.334 59.0356 854.698 0L853.383 0C885.664 58.3257 902.982 120.778 903.126 183.33C903.626 208.399 901.693 234.933 899.826 260.591C894.014 340.215 887.992 422.545 948.596 488.957C983.652 526.495 1035.53 550.056 1085.69 572.852C1134.83 595.17 1185.62 618.254 1220.51 654.428C1252.15 687.318 1271.51 741.35 1239.3 782.272L1240.21 782.726C1254.67 764.379 1259.93 741.772 1255.45 717.346C1251.28 695.049 1239.18 672.52 1221.27 653.906Z" fill="url(#paint7_linear_670_2016)"/>
<path style="mix-blend-mode:color-dodge" d="M1130.28 683.701C1075.38 651.166 1007.69 641.139 942.245 631.421C882.245 622.547 820.207 613.329 768.413 586.817C665.178 531.343 629.373 433.427 594.738 338.739C586.849 317.075 579.327 296.587 571.069 276.564C540.34 164.783 444.837 60.1449 321.761 3.50531C319.131 2.3073 316.532 1.13923 313.963 0L311.767 0C314.923 1.3755 318.079 2.79537 321.235 4.23743C444.035 60.8104 539.367 165.193 570.031 276.786C578.341 296.864 585.81 317.319 593.699 338.972C628.387 433.815 664.245 531.886 767.781 587.527C819.773 614.15 881.916 623.357 942.008 632.264C1007.36 641.959 1074.93 651.976 1129.63 684.4C1179.6 714.184 1217.02 770.924 1191.7 821.717L1192.68 822.039C1204.3 798.744 1203.49 772.466 1190.36 745.987C1178.35 721.739 1157.01 699.62 1130.28 683.701Z" fill="url(#paint8_linear_670_2016)"/>
<path style="mix-blend-mode:color-dodge" d="M1175.77 668.804C1131.07 634.339 1071.9 617.533 1014.61 601.271C959.523 585.697 902.561 569.468 858.879 537.621C777.512 476.056 763.324 385.539 749.596 298.018C746.046 275.366 742.377 251.938 737.578 229.953C729.78 170.329 705.112 110.151 666.23 55.9851C652.141 36.3736 636.363 17.6614 619.025 0L617.552 0C683.166 66.9447 725.757 147.766 736.526 230.064C741.325 252.06 744.823 274.435 748.544 298.118C762.285 385.75 776.513 476.467 858.156 538.253C901.995 570.223 959.063 586.418 1014.24 602.081C1071.41 618.31 1130.52 635.082 1175.04 669.414C1216.3 701.383 1243.51 757.18 1215.46 802.006L1216.42 802.383C1229.42 781.584 1231.66 757.135 1222.88 731.667C1214.84 708.405 1198.12 686.086 1175.77 668.804Z" fill="url(#paint9_linear_670_2016)"/>
<path style="mix-blend-mode:color-dodge" d="M1153.03 676.247C1103.28 642.736 1039.84 629.258 978.471 616.224C920.93 604.022 861.443 591.365 813.633 562.214C721.312 503.422 696.421 408.99 672.358 317.63C666.454 295.211 660.879 274.035 654.304 253.292C642.812 195.854 614.856 138.415 573.463 87.2112C547.38 54.976 516.544 25.6705 481.694 0L480.261 0C571.056 66.4012 634.107 157.517 653.265 253.425C659.84 274.224 665.415 295.389 671.319 317.763C695.421 409.322 720.339 503.932 812.975 562.89C860.957 592.142 920.562 604.799 978.195 617.045C1039.44 630.057 1102.78 643.512 1152.34 676.946C1198.01 707.85 1230.28 764.124 1203.62 811.9L1204.6 812.244C1231.46 764.046 1199.01 707.362 1153.03 676.247Z" fill="url(#paint10_linear_670_2016)"/>
</g>
<g style="mix-blend-mode:color-dodge" opacity="0.3">
<path style="mix-blend-mode:color-dodge" d="M1017.03 132.189C1041.19 158.571 1060.43 199.781 1072.66 251.337C1083.45 296.765 1088.06 346.926 1085.67 392.597C1078.09 568.691 1129.97 694.349 1239.87 766.363C1275.75 793.634 1315.53 817.487 1353.99 840.568C1452.69 899.762 1554.77 960.987 1609.36 1088.01C1634.77 1148.41 1646 1216.15 1641.85 1283.94L1641.02 1283.92C1645.17 1216.32 1633.98 1148.76 1608.64 1088.52C1554.18 961.805 1452.23 900.661 1353.64 841.535C1315.15 818.441 1275.36 794.574 1239.47 767.303C1183.01 730.296 1141.31 678.134 1115.6 612.284C1091.56 550.778 1081.21 476.832 1084.84 392.543C1089.27 308.348 1069.78 191.225 1016.48 132.995C988.275 102.255 954.317 92.1406 915.547 103.129L915.37 102.087C954.414 90.9586 988.611 101.143 1017.03 132.189Z" fill="url(#paint11_linear_670_2016)"/>
<path style="mix-blend-mode:color-dodge" d="M987.681 130.73C1012.27 149.005 1033.67 178.377 1046.53 211.335C1074.02 282.582 1071.82 362.752 1069.68 440.294C1067.81 507.885 1065.88 577.776 1083.65 641.462C1102.88 710.933 1146.29 774.488 1212.69 830.369C1247.09 860.27 1285.64 887.009 1322.9 912.87C1417.21 978.286 1514.7 1045.92 1562.62 1174.16C1575 1208.64 1582.55 1245.4 1584.95 1282.94L1583.99 1282.93C1581.71 1245.54 1574.23 1208.93 1561.86 1174.62C1514.01 1046.69 1416.68 979.145 1322.52 913.81C1285.22 887.935 1246.66 861.197 1212.24 831.256C1145.71 775.254 1102.18 711.513 1082.86 641.829C1065.04 577.959 1066.97 507.949 1068.84 440.266C1070.96 362.856 1073.18 282.83 1045.78 211.809C1021.73 149.946 964.46 94.9216 905.696 114.819L905.486 113.79C932.179 104.748 960.604 110.609 987.681 130.73Z" fill="url(#paint12_linear_670_2016)"/>
<path style="mix-blend-mode:color-dodge" d="M980.365 146.857C1005.41 167.153 1026.71 198.956 1038.82 233.952C1065.01 310.555 1059.07 394.75 1053.34 476.187C1048.39 546.342 1043.23 618.873 1058.72 686.319C1075.69 760.828 1118.36 830.84 1185.54 894.389C1217.39 925.074 1253.26 953.331 1287.94 980.659C1379.83 1053.03 1474.83 1127.87 1515.88 1260.37C1518 1267.43 1519.88 1274.59 1521.53 1281.84L1520.65 1281.82C1519.03 1274.73 1517.17 1267.68 1515.09 1260.68C1474.16 1128.53 1379.27 1053.78 1287.5 981.507C1252.8 954.164 1216.91 925.894 1185.04 895.182C1117.71 831.486 1074.94 761.301 1057.92 686.568C1042.43 618.924 1047.55 546.288 1052.5 476.055C1058.28 394.776 1064.1 310.723 1038.05 234.373C1014.94 167.411 955.41 108.756 895.813 126.509L895.635 125.467C923.151 117.281 953.245 124.868 980.365 146.857Z" fill="url(#paint13_linear_670_2016)"/>
<path style="mix-blend-mode:color-dodge" d="M973.05 162.984C998.563 185.313 1019.74 219.416 1031.07 256.555C1055.92 338.526 1046.23 426.681 1036.86 511.921C1028.86 584.665 1020.58 659.89 1033.77 731.097C1048.49 810.656 1090.42 887.099 1158.37 958.342C1188.46 989.891 1221.18 1018.42 1252.83 1046.03C1281.18 1070.76 1310.5 1096.32 1337.84 1123.97C1374.83 1155.78 1409.07 1202.11 1434.23 1254.4C1438.44 1263.05 1442.31 1271.76 1445.86 1280.51L1444.95 1280.5C1420.14 1219.57 1382.3 1163.52 1337.33 1124.83C1310.01 1097.18 1280.69 1071.63 1252.35 1046.91C1220.69 1019.29 1188 990.738 1157.83 959.174C1089.74 887.785 1047.72 811.129 1032.97 731.347C1019.76 659.955 1028.04 584.625 1036.05 511.775C1045.41 426.666 1055.09 338.656 1030.32 256.936C1008.47 185.775 948.505 121.919 885.939 138.212L885.773 137.157C914.517 129.716 945.509 138.858 973.05 162.984Z" fill="url(#paint14_linear_670_2016)"/>
<path style="mix-blend-mode:color-dodge" d="M1002.26 98.4746C1026.3 112.94 1047.48 136.955 1061.93 166.153C1092.39 242.488 1098.53 314.98 1104.46 385.087C1114.99 509.471 1124.08 616.891 1266.98 702.369C1316.39 733.256 1368.7 759.38 1419.27 784.592C1424.55 787.218 1429.81 789.848 1435.06 792.482C1485.9 811.952 1535.38 846.943 1578.11 893.679C1621.33 940.949 1655.54 997.991 1677.03 1058.65C1703.9 1134.41 1709.92 1211.6 1695.15 1284.87L1694.29 1284.85C1709.08 1211.75 1703.07 1134.71 1676.28 1059.1C1633.15 937.355 1538.39 833.121 1434.84 793.491C1429.56 790.856 1424.29 788.222 1419.02 785.587C1368.42 760.348 1316.1 734.237 1266.66 703.337C1201.16 664.147 1159.43 618.06 1135.34 558.354C1113.81 504.926 1108.89 446.804 1103.68 385.271C1097.76 315.256 1091.63 242.857 1061.26 166.733C1034.77 113.245 978.169 68.6875 925.453 91.4658L925.187 90.4616C949.445 79.9301 976.117 82.7103 1002.26 98.4746Z" fill="url(#paint15_linear_670_2016)"/>
<path style="mix-blend-mode:color-dodge" d="M1163.57 224.885C1181.44 277.802 1199.91 332.583 1233.21 372.539C1294.67 444.26 1379.29 449.604 1461.11 454.78C1484.85 456.273 1509.38 457.819 1532.42 461.049C1603.3 467.007 1672.41 495.857 1733.81 543.616L1733.79 544.865C1672.41 496.988 1603.26 468.072 1532.35 462.113C1509.31 458.883 1484.78 457.337 1461.07 455.845C1379.09 450.666 1294.32 445.306 1232.64 373.319C1199.2 333.281 1180.7 278.368 1162.8 225.319C1144.78 171.887 1126.13 116.629 1092.23 76.4255C1061.5 40.052 1008.57 14.5748 964.979 44.6009L964.582 43.6603C1008.53 13.3907 1061.86 39.0195 1092.81 75.6466C1126.84 115.997 1145.52 171.347 1163.57 224.885Z" fill="url(#paint16_linear_670_2016)"/>
<path style="mix-blend-mode:color-dodge" d="M1100.51 53.0294C1135.53 88.6491 1157.33 139.938 1178.42 189.544C1199.87 239.985 1222.04 292.162 1258.13 327.708C1321.99 389.187 1402.73 384.612 1480.78 380.175C1506 378.748 1532.1 377.27 1556.71 378.199C1618.21 379.417 1678.42 397.105 1735.78 430.747L1735.76 432.062C1679.09 398.787 1618.1 380.402 1556.73 379.186C1532.13 378.257 1506.06 379.735 1480.85 381.163C1402.62 385.61 1321.73 390.221 1257.61 328.488C1221.39 292.795 1199.18 240.525 1177.68 189.978C1156.64 140.465 1134.87 89.2821 1099.99 53.783C1068.26 21.5875 1015.58 1.29626 974.865 32.806L974.434 31.891C992.69 17.7434 1014.97 12.8717 1038.86 17.7732C1060.66 22.3228 1082.56 34.8041 1100.51 53.0294Z" fill="url(#paint17_linear_670_2016)"/>
<path style="mix-blend-mode:color-dodge" d="M1069.69 143.498C1100.65 198.945 1109.31 266.798 1117.71 332.398C1125.37 392.541 1133.33 454.727 1158.44 506.968C1211.08 611.137 1306.53 648.614 1398.84 684.865C1419.96 693.125 1439.94 700.996 1459.44 709.595C1568.59 742.235 1669.61 839.515 1723.04 963.543C1724.17 966.193 1725.27 968.812 1726.34 971.399L1726.3 973.595C1725.01 970.416 1723.67 967.236 1722.31 964.056C1668.94 840.306 1568.17 743.201 1459.21 710.63C1439.65 701.977 1419.71 694.159 1398.6 685.9C1306.14 649.593 1210.53 612.061 1157.73 507.587C1132.52 455.147 1124.57 392.856 1116.88 332.62C1108.5 267.113 1099.85 199.378 1068.99 144.13C1040.64 93.6604 985.611 55.2717 935.327 79.7232L935.028 78.7317C958.089 67.5217 983.862 68.7737 1009.62 82.3613C1033.2 94.78 1054.53 116.497 1069.69 143.498Z" fill="url(#paint18_linear_670_2016)"/>
<path style="mix-blend-mode:color-dodge" d="M1085.1 98.2635C1118.14 143.554 1133.6 203.004 1148.55 260.565C1162.88 315.906 1177.81 373.137 1208.3 417.358C1267.29 499.767 1355.86 515.503 1441.51 530.728C1463.67 534.666 1486.6 538.735 1508.09 543.91C1566.46 552.728 1625.08 578.423 1677.55 618.227C1696.55 632.65 1714.64 648.746 1731.67 666.384L1731.64 667.857C1667.09 601.106 1588.53 557.137 1507.96 544.96C1486.46 539.785 1464.56 535.904 1441.39 531.778C1355.64 516.538 1266.87 500.759 1207.66 418.07C1177.06 373.69 1162.16 316.354 1147.75 260.92C1132.83 203.478 1117.4 144.094 1084.49 98.9893C1053.84 57.1858 999.56 29.0286 955.084 56.3037L954.731 55.3375C975.367 42.6912 999.397 40.8749 1024.24 50.0935C1046.92 58.5249 1068.53 75.6304 1085.1 98.2635Z" fill="url(#paint19_linear_670_2016)"/>
<path style="mix-blend-mode:color-dodge" d="M1077.4 120.881C1109.41 171.19 1121.53 234.857 1133.25 296.438C1144.22 354.179 1155.6 413.874 1183.37 462.176C1239.45 555.49 1331.68 581.995 1420.91 607.619C1442.81 613.906 1463.49 619.843 1483.73 626.772C1539.89 639.246 1595.77 668.181 1645.29 710.446C1676.47 737.076 1704.69 768.41 1729.27 803.694L1729.24 805.127C1665.67 713.208 1577.36 648.606 1483.58 627.808C1463.29 620.878 1442.62 614.941 1420.76 608.655C1331.34 582.988 1238.94 556.454 1182.7 462.822C1154.83 414.347 1143.45 354.534 1132.44 296.7C1120.74 235.237 1108.64 171.677 1076.7 121.552C1047.17 75.3629 992.515 42.1358 945.168 67.9668L944.848 66.988C992.612 40.9539 1047.67 74.372 1077.4 120.881Z" fill="url(#paint20_linear_670_2016)"/>
</g>
<defs>
<linearGradient id="paint0_linear_670_2016" x1="129.82" y1="1073.74" x2="2298.39" y2="1072.77" gradientUnits="userSpaceOnUse">
<stop stop-color="#20276B"/>
<stop offset="1"/>
</linearGradient>
<linearGradient id="paint1_linear_670_2016" x1="1207.25" y1="914.577" x2="306.225" y2="-66.7289" gradientUnits="userSpaceOnUse">
<stop/>
<stop offset="1" stop-color="white"/>
</linearGradient>
<linearGradient id="paint2_linear_670_2016" x1="1189.61" y1="934.896" x2="224.163" y2="-59.8932" gradientUnits="userSpaceOnUse">
<stop/>
<stop offset="1" stop-color="white"/>
</linearGradient>
<linearGradient id="paint3_linear_670_2016" x1="1171.58" y1="959.741" x2="126.077" y2="-45.8186" gradientUnits="userSpaceOnUse">
<stop/>
<stop offset="1" stop-color="white"/>
</linearGradient>
<linearGradient id="paint4_linear_670_2016" x1="1152.48" y1="992.048" x2="-2.28855" y2="-16.1159" gradientUnits="userSpaceOnUse">
<stop/>
<stop offset="1" stop-color="white"/>
</linearGradient>
<linearGradient id="paint5_linear_670_2016" x1="1221.35" y1="896.008" x2="381.586" y2="-68.2814" gradientUnits="userSpaceOnUse">
<stop/>
<stop offset="1" stop-color="white"/>
</linearGradient>
<linearGradient id="paint6_linear_670_2016" x1="1510.64" y1="762.173" x2="936.783" y2="-759.291" gradientUnits="userSpaceOnUse">
<stop/>
<stop offset="1" stop-color="white"/>
</linearGradient>
<linearGradient id="paint7_linear_670_2016" x1="1631.94" y1="739.865" x2="1138.01" y2="-868.146" gradientUnits="userSpaceOnUse">
<stop/>
<stop offset="1" stop-color="white"/>
</linearGradient>
<linearGradient id="paint8_linear_670_2016" x1="1243.3" y1="872.579" x2="480.436" y2="-311.515" gradientUnits="userSpaceOnUse">
<stop/>
<stop offset="1" stop-color="white"/>
</linearGradient>
<linearGradient id="paint9_linear_670_2016" x1="1400.54" y1="795.159" x2="755.047" y2="-628.842" gradientUnits="userSpaceOnUse">
<stop/>
<stop offset="1" stop-color="white"/>
</linearGradient>
<linearGradient id="paint10_linear_670_2016" x1="1245.19" y1="777.269" x2="463.649" y2="-132.048" gradientUnits="userSpaceOnUse">
<stop/>
<stop offset="1" stop-color="white"/>
</linearGradient>
<linearGradient id="paint11_linear_670_2016" x1="844.477" y1="62.5847" x2="1808.49" y2="962.272" gradientUnits="userSpaceOnUse">
<stop/>
<stop offset="1" stop-color="white"/>
</linearGradient>
<linearGradient id="paint12_linear_670_2016" x1="824.231" y1="79.8686" x2="1801.61" y2="1043.9" gradientUnits="userSpaceOnUse">
<stop/>
<stop offset="1" stop-color="white"/>
</linearGradient>
<linearGradient id="paint13_linear_670_2016" x1="799.536" y1="97.4743" x2="1787.58" y2="1141.53" gradientUnits="userSpaceOnUse">
<stop/>
<stop offset="1" stop-color="white"/>
</linearGradient>
<linearGradient id="paint14_linear_670_2016" x1="767.501" y1="116.013" x2="1758.06" y2="1269.48" gradientUnits="userSpaceOnUse">
<stop/>
<stop offset="1" stop-color="white"/>
</linearGradient>
<linearGradient id="paint15_linear_670_2016" x1="862.945" y1="48.8011" x2="1810.1" y2="887.368" gradientUnits="userSpaceOnUse">
<stop/>
<stop offset="1" stop-color="white"/>
</linearGradient>
<linearGradient id="paint16_linear_670_2016" x1="999.323" y1="-238.149" x2="2489.48" y2="343.23" gradientUnits="userSpaceOnUse">
<stop/>
<stop offset="1" stop-color="white"/>
</linearGradient>
<linearGradient id="paint17_linear_670_2016" x1="1023.33" y1="-359.05" x2="2597.93" y2="145.774" gradientUnits="userSpaceOnUse">
<stop/>
<stop offset="1" stop-color="white"/>
</linearGradient>
<linearGradient id="paint18_linear_670_2016" x1="886.318" y1="27.2612" x2="2047.96" y2="790.456" gradientUnits="userSpaceOnUse">
<stop/>
<stop offset="1" stop-color="white"/>
</linearGradient>
<linearGradient id="paint19_linear_670_2016" x1="965.032" y1="-128.627" x2="2360.27" y2="521.481" gradientUnits="userSpaceOnUse">
<stop/>
<stop offset="1" stop-color="white"/>
</linearGradient>
<linearGradient id="paint20_linear_670_2016" x1="979.877" y1="27.0016" x2="1873" y2="807.444" gradientUnits="userSpaceOnUse">
<stop/>
<stop offset="1" stop-color="white"/>
</linearGradient>
</defs>
</svg>
